<?xml version="1.0" encoding="iso-8859-1"?>
<!-- Generator: Adobe Illustrator 19.2.0, SVG Export Plug-In . SVG Version: 6.00 Build 0)  -->
<svg version="1.1" xmlns="http://www.w3.org/2000/svg" xmlns:xlink="http://www.w3.org/1999/xlink" x="0px" y="0px"
	 viewBox="0 0 20 20" style="enable-background:new 0 0 20 20;" xml:space="preserve">
<g id="s">
	<path d="M10.663,9.238c2.994,0.681,4.376,1.82,4.376,3.981c0,2.42-1.919,3.98-4.588,3.98c-2.13,0-3.877-0.74-5.489-2.24l0.94-1.16
		c1.401,1.32,2.745,1.98,4.606,1.98c1.805,0,2.995-0.98,2.995-2.4c0-1.32-0.672-2.061-3.494-2.681c-3.09-0.7-4.511-1.74-4.511-4.062
		c0-2.24,1.862-3.841,4.415-3.841c1.958,0,3.359,0.58,4.723,1.721l-0.884,1.221c-1.247-1.061-2.495-1.521-3.877-1.521
		c-1.747,0-2.86,1-2.86,2.28C7.015,7.838,7.707,8.578,10.663,9.238z"/>
</g>
<g id="Layer_1">
</g>
</svg>
