<!-- Generator: Adobe Illustrator 19.2.0, SVG Export Plug-In  -->
<svg version="1.1"
	 xmlns="http://www.w3.org/2000/svg" xmlns:xlink="http://www.w3.org/1999/xlink" xmlns:a="http://ns.adobe.com/AdobeSVGViewerExtensions/3.0/"
	 x="0px" y="0px" width="90.571px" height="8.482px" viewBox="0 0 90.571 8.482" style="enable-background:new 0 0 90.571 8.482;"
	 xml:space="preserve">
<defs>
</defs>
<g>
	<path d="M8.507,8.423H7.491l-0.979-2.21H1.96l-0.992,2.21H0L3.812,0h0.884L8.507,8.423z M4.241,1.099L2.33,5.364h3.812L4.241,1.099
		z"/>
	<path d="M15.252,0.06h1.016l-3.597,8.423h-0.836L8.238,0.06H9.29l2.975,7.205L15.252,0.06z"/>
	<path d="M24.506,8.423H23.49l-0.979-2.21h-4.552l-0.992,2.21h-0.968L19.811,0h0.884L24.506,8.423z M20.24,1.099l-1.911,4.265h3.812
		L20.24,1.099z"/>
	<path d="M27.177,0.06v8.363h-0.943V0.06H27.177z"/>
	<path d="M29.624,0.06h0.944v7.491h4.707v0.872h-5.651V0.06z"/>
	<path d="M44.806,8.423H43.79l-0.979-2.21h-4.552l-0.992,2.21h-0.968L40.11,0h0.884L44.806,8.423z M40.54,1.099l-1.911,4.265h3.812
		L40.54,1.099z"/>
	<path d="M52.733,2.15c0,1.099-0.669,1.661-1.326,1.947C52.399,4.396,53.2,4.97,53.2,6.129c0,1.446-1.207,2.294-3.035,2.294h-3.716
		V0.06h3.561C51.658,0.06,52.733,0.872,52.733,2.15z M51.778,2.282c0-0.836-0.657-1.374-1.853-1.374h-2.545v2.879h2.474
		C50.989,3.787,51.778,3.273,51.778,2.282z M52.244,6.069c0-0.92-0.765-1.446-2.223-1.446h-2.641v2.951h2.809
		C51.455,7.575,52.244,7.013,52.244,6.069z"/>
	<path d="M55.07,0.06h0.944v7.491h4.707v0.872H55.07V0.06z"/>
	<path d="M68.508,0.92h-5.102v2.855h4.563v0.86h-4.563v2.927h5.161v0.86h-6.105V0.06h6.046V0.92z"/>
	<path d="M81.835,8.423h-1.016l-0.979-2.21h-4.552l-0.992,2.21h-0.968L77.14,0h0.884L81.835,8.423z M77.569,1.099l-1.911,4.265
		h3.812L77.569,1.099z"/>
	<path d="M85.569,8.423h-0.955V0.932h-2.809V0.06h6.571v0.872h-2.808V8.423z"/>
	<path d="M89.472,3.5V2.246h1.1V3.5H89.472z M89.472,8.423V7.168h1.1v1.254H89.472z"/>
</g>
</svg>
